<svg width="151" height="156" viewBox="0 0 151 156" fill="none" xmlns="http://www.w3.org/2000/svg">
<g clip-path="url(#clip0_4_440)">
<path d="M120.095 63.0331C95.8504 64.4545 71.4451 65.7859 47.2006 67.2073C47.0912 67.7798 47.0526 68.6032 46.9432 69.1757C55.0608 72.032 63.3393 74.9783 71.3669 77.9954C76.0689 79.7838 80.6809 81.7331 84.9326 84.3255C93.7576 89.6907 93.461 97.7639 84.4743 102.871C81.4251 104.544 77.9642 106.197 74.6321 106.866C58.3124 109.98 42.012 112.681 25.7824 115.634C24.6181 115.827 23.293 115.93 22.238 115.55C21.3439 115.261 19.9868 114.289 19.8646 113.376C19.7618 112.051 20.2702 110.011 21.2737 109.728C24.3035 108.467 27.3141 107.618 30.4854 106.859C43.4022 104.164 56.6406 101.649 69.6475 98.7929C73.4814 97.9824 77.2833 96.0976 82.9119 93.9684C78.5702 91.5367 76.1774 89.7741 73.4244 88.6547C60.9263 84.1902 48.248 80.0473 35.7499 75.5827C32.9068 74.6242 29.9736 73.8265 27.6709 71.903C25.5998 70.3205 23.3358 67.5737 23.0401 65.0841C22.5515 61.4303 25.7809 59.4361 29.2031 58.6063C32.3744 57.8473 35.5457 57.0882 38.8585 56.8309C58.3943 55.5188 77.6793 54.2775 97.2151 52.9654C100.277 52.7789 103.429 52.4316 108.479 52.0907C98.9203 46.5262 88.6216 47.9413 80.6138 39.2311C84.5378 38.2597 86.9758 37.3013 89.2851 37.327C107.309 38.3372 125.037 42.1392 142.276 47.5687C149.519 49.7238 150.715 55.8865 145.021 61.1485C142.435 63.5029 139.527 65.6772 136.247 67.0088C127.318 70.8813 118.318 74.5029 109.158 78.0344C107.563 78.6198 104.771 78.3239 103.826 77.3718C101.954 75.0559 103.627 72.8238 105.833 71.5244C110.587 68.6939 115.663 66.0436 120.487 63.4641C120.307 63.7857 120.166 63.284 120.095 63.0331Z" fill="black"/>
</g>
<defs>
<clipPath id="clip0_4_440">
<rect width="106.179" height="118.364" fill="white" transform="translate(93.0791 155.302) rotate(-150.748)"/>
</clipPath>
</defs>
</svg>
