<svg width="62" height="61" viewBox="0 0 62 61" fill="none" xmlns="http://www.w3.org/2000/svg">
<path d="M0 8.97059C0 4.01627 4.00017 0 8.93463 0H52.7143C57.6488 0 61.6489 4.01627 61.6489 8.97059V52.0294C61.6489 56.9837 57.6488 61 52.7143 61H8.93463C4.00017 61 0 56.9837 0 52.0294V8.97059Z" fill="white"/>
<path d="M1.29785 9.26005C1.29785 4.86265 4.84685 1.29785 9.22477 1.29785H49.8284C54.2063 1.29785 57.7553 4.86265 57.7553 9.26004V49.1442C57.7553 53.5416 54.2063 57.1064 49.8284 57.1064H9.22478C4.84686 57.1064 1.29785 53.5416 1.29785 49.1442V9.26005Z" fill="#BE407F"/>
<path d="M24.6593 49.9681H10.8154C10.3565 49.9681 9.91634 49.7858 9.59181 49.4614C9.26728 49.1369 9.08496 48.6969 9.08496 48.2381C9.08496 47.7792 9.26728 47.3392 9.59181 47.0148C9.91634 46.6903 10.3565 46.508 10.8154 46.508H24.6593C25.1183 46.508 25.5584 46.6903 25.883 47.0148C26.2075 47.3392 26.3898 47.7792 26.3898 48.2381C26.3898 48.6969 26.2075 49.1369 25.883 49.4614C25.5584 49.7858 25.1183 49.9681 24.6593 49.9681ZM21.1984 43.048H10.8154C10.3565 43.048 9.91634 42.8658 9.59181 42.5413C9.26728 42.2169 9.08496 41.7768 9.08496 41.318C9.08496 40.8592 9.26728 40.4191 9.59181 40.0947C9.91634 39.7703 10.3565 39.588 10.8154 39.588H21.1984C21.6573 39.588 22.0975 39.7703 22.422 40.0947C22.7465 40.4191 22.9288 40.8592 22.9288 41.318C22.9288 41.7768 22.7465 42.2169 22.422 42.5413C22.0975 42.8658 21.6573 43.048 21.1984 43.048ZM17.7374 36.128H10.8154C10.3565 36.128 9.91634 35.9457 9.59181 35.6213C9.26728 35.2968 9.08496 34.8568 9.08496 34.398C9.08496 33.9391 9.26728 33.4991 9.59181 33.1746C9.91634 32.8502 10.3565 32.6679 10.8154 32.6679H17.7374C18.1963 32.6679 18.6365 32.8502 18.961 33.1746C19.2856 33.4991 19.4679 33.9391 19.4679 34.398C19.4679 34.8568 19.2856 35.2968 18.961 35.6213C18.6365 35.9457 18.1963 36.128 17.7374 36.128ZM31.5813 49.8902C31.1223 49.9106 30.674 49.748 30.3351 49.438C29.9961 49.1279 29.7942 48.696 29.7738 48.2372C29.7534 47.7784 29.9161 47.3302 30.2262 46.9913C30.5363 46.6525 30.9683 46.4506 31.4273 46.4302C34.7021 46.1306 37.8238 44.9044 40.4267 42.8951C43.0296 40.8857 45.0059 38.1765 46.1241 35.0848C47.2424 31.9931 47.4563 28.6468 46.7407 25.4379C46.0252 22.229 44.4099 19.2904 42.084 16.9662C39.7581 14.642 36.818 13.0285 33.6079 12.3146C30.3978 11.6008 27.0507 11.8162 23.9586 12.9355C20.8665 14.0549 18.1575 16.0319 16.1488 18.635C14.1402 21.2381 12.915 24.3595 12.6169 27.6336C12.5964 27.8599 12.5316 28.0799 12.4261 28.2811C12.3206 28.4824 12.1764 28.6609 12.0019 28.8064C11.8274 28.952 11.6259 29.0617 11.409 29.1294C11.1921 29.1971 10.9639 29.2214 10.7376 29.201C10.5112 29.1805 10.2911 29.1157 10.0899 29.0102C9.88856 28.9048 9.71003 28.7607 9.56445 28.5862C9.41886 28.4117 9.30907 28.2103 9.24135 27.9934C9.17363 27.7766 9.1493 27.5485 9.16975 27.3222C9.65237 21.9995 12.1697 17.0679 16.1978 13.554C20.2259 10.0401 25.4544 8.21467 30.7949 8.45764C36.1353 8.70062 41.1763 10.9933 44.8685 14.8584C48.5607 18.7236 50.6196 23.8634 50.6166 29.2079C50.6431 34.3951 48.7155 39.4022 45.2173 43.2332C41.7191 47.0641 36.9065 49.4383 31.737 49.8833C31.6851 49.8885 31.6315 49.8902 31.5813 49.8902ZM29.8508 18.8278C29.3918 18.8278 28.9517 19.0101 28.6271 19.3345C28.3026 19.659 28.1203 20.099 28.1203 20.5578V29.2079C28.1204 29.6667 28.3028 30.1067 28.6273 30.431L33.8188 35.6211C34.1452 35.9362 34.5823 36.1106 35.036 36.1066C35.4897 36.1027 35.9238 35.9208 36.2446 35.6C36.5655 35.2792 36.7475 34.8453 36.7514 34.3917C36.7553 33.9381 36.5809 33.5011 36.2657 33.1748L31.5813 28.4917V20.5578C31.5813 20.099 31.3989 19.659 31.0744 19.3345C30.7499 19.0101 30.3097 18.8278 29.8508 18.8278Z" fill="white"/>
</svg>
