<svg width="185" height="185" viewBox="0 0 185 185" fill="none" xmlns="http://www.w3.org/2000/svg">
<g clip-path="url(#clip0_59_211)">
<path d="M69.375 185H7.70833C5.66396 185 3.70331 184.188 2.25772 182.742C0.812126 181.297 0 179.336 0 177.292C0 175.247 0.812126 173.287 2.25772 171.841C3.70331 170.395 5.66396 169.583 7.70833 169.583H69.375C71.4194 169.583 73.38 170.395 74.8256 171.841C76.2712 173.287 77.0833 175.247 77.0833 177.292C77.0833 179.336 76.2712 181.297 74.8256 182.742C73.38 184.188 71.4194 185 69.375 185ZM53.9583 154.167H7.70833C5.66396 154.167 3.70331 153.355 2.25772 151.909C0.812126 150.463 0 148.503 0 146.458C0 144.414 0.812126 142.453 2.25772 141.008C3.70331 139.562 5.66396 138.75 7.70833 138.75H53.9583C56.0027 138.75 57.9634 139.562 59.4089 141.008C60.8545 142.453 61.6667 144.414 61.6667 146.458C61.6667 148.503 60.8545 150.463 59.4089 151.909C57.9634 153.355 56.0027 154.167 53.9583 154.167ZM38.5417 123.333H7.70833C5.66396 123.333 3.70331 122.521 2.25772 121.076C0.812126 119.63 0 117.669 0 115.625C0 113.581 0.812126 111.62 2.25772 110.174C3.70331 108.729 5.66396 107.917 7.70833 107.917H38.5417C40.586 107.917 42.5467 108.729 43.9923 110.174C45.4379 111.62 46.25 113.581 46.25 115.625C46.25 117.669 45.4379 119.63 43.9923 121.076C42.5467 122.521 40.586 123.333 38.5417 123.333ZM100.208 184.653C98.164 184.744 96.1672 184.019 94.6573 182.638C93.1473 181.257 92.248 179.332 92.157 177.288C92.066 175.243 92.7909 173.247 94.1721 171.737C95.5534 170.227 97.4779 169.327 99.5223 169.236C114.11 167.902 128.015 162.438 139.61 153.485C151.204 144.532 160.007 132.461 164.989 118.685C169.97 104.91 170.922 89.9998 167.735 75.7021C164.548 61.4044 157.353 48.3109 146.992 37.9551C136.632 27.5993 123.535 20.4101 109.236 17.2295C94.9365 14.0488 80.0271 15.0084 66.2537 19.9959C52.4802 24.9834 40.4131 33.7923 31.4656 45.3907C22.5181 56.9892 17.0608 70.8971 15.7327 85.4854C15.6416 86.4937 15.3528 87.4741 14.8828 88.3707C14.4128 89.2673 13.7708 90.0625 12.9935 90.711C12.2161 91.3595 11.3187 91.8486 10.3523 92.1502C9.38598 92.4519 8.36968 92.5603 7.36146 92.4692C6.35323 92.3781 5.37283 92.0893 4.47621 91.6193C3.5796 91.1493 2.78434 90.5073 2.13584 89.7299C1.48734 88.9526 0.998297 88.0551 0.696637 87.0888C0.394976 86.1224 0.286604 85.1061 0.377708 84.0979C2.52748 60.3818 13.7409 38.4083 31.6838 22.7517C49.6267 7.09502 72.9165 -1.03856 96.7053 0.0440601C120.494 1.12668 142.949 11.3421 159.395 28.5638C175.842 45.7855 185.013 68.6866 185 92.5C185.118 115.612 176.532 137.922 160.949 154.992C145.367 172.061 123.929 182.639 100.902 184.622C100.671 184.645 100.432 184.653 100.208 184.653ZM92.5 46.25C90.4556 46.25 88.495 47.0621 87.0494 48.5077C85.6038 49.9533 84.7917 51.914 84.7917 53.9583V92.5C84.7921 94.5442 85.6045 96.5045 87.0502 97.9498L110.175 121.075C111.629 122.479 113.576 123.256 115.597 123.238C117.618 123.221 119.552 122.41 120.981 120.981C122.41 119.552 123.221 117.618 123.238 115.597C123.256 113.576 122.479 111.629 121.075 110.175L100.208 89.3088V53.9583C100.208 51.914 99.3962 49.9533 97.9506 48.5077C96.505 47.0621 94.5444 46.25 92.5 46.25Z" fill="black"/>
</g>
<defs>
<clipPath id="clip0_59_211">
<rect width="185" height="185" fill="white"/>
</clipPath>
</defs>
</svg>
