<svg width="1280" height="720" viewBox="0 0 1280 720" fill="none" xmlns="http://www.w3.org/2000/svg">
<g clip-path="url(#clip0_4_442)">
<rect width="1280" height="720" fill="black"/>
<path fill-rule="evenodd" clip-rule="evenodd" d="M198.201 309.941L196.568 300.066L194.934 309.941L185.019 311.567L194.934 313.194L196.568 323.069L198.201 313.194L208.116 311.567L198.201 309.941ZM211.445 311.567L198.672 313.663L196.568 326.384L194.464 313.663L181.691 311.567L194.464 309.472L196.568 296.751L198.672 309.472L211.445 311.567Z" fill="white"/>
<path fill-rule="evenodd" clip-rule="evenodd" d="M199.756 311.557L198.123 301.682L196.49 311.557L186.575 313.184L196.49 314.81L198.123 324.685L199.756 314.81L209.671 313.184L199.756 311.557ZM213 313.184L200.227 315.279L198.123 328L196.019 315.279L183.246 313.184L196.019 311.088L198.123 298.367L200.227 311.088L213 313.184Z" fill="white"/>
<path d="M194.877 295L196.981 307.721L209.754 309.816L196.981 311.912L194.877 324.633L192.773 311.912L180 309.816L192.773 307.721L194.877 295Z" fill="white"/>
<path fill-rule="evenodd" clip-rule="evenodd" d="M1250.4 478.882L1247.14 459.132L1243.87 478.882L1224.04 482.135L1243.87 485.388L1247.14 505.137L1250.4 485.388L1270.23 482.135L1250.4 478.882ZM1276.89 482.135L1251.34 486.325L1247.14 511.767L1242.93 486.325L1217.38 482.135L1242.93 477.944L1247.14 452.502L1251.34 477.944L1276.89 482.135Z" fill="white"/>
<path fill-rule="evenodd" clip-rule="evenodd" d="M1253.51 482.114L1250.25 462.365L1246.98 482.114L1227.15 485.367L1246.98 488.62L1250.25 508.37L1253.51 488.62L1273.34 485.367L1253.51 482.114ZM1280 485.367L1254.45 489.558L1250.25 515L1246.04 489.558L1220.49 485.367L1246.04 481.177L1250.25 455.735L1254.45 481.177L1280 485.367Z" fill="white"/>
<path d="M1243.75 449L1247.96 474.442L1273.51 478.633L1247.96 482.823L1243.75 508.265L1239.55 482.823L1214 478.633L1239.55 474.442L1243.75 449Z" fill="white"/>
<path fill-rule="evenodd" clip-rule="evenodd" d="M234.252 126C242.719 127.618 249.382 134.281 251 142.748C252.618 134.281 259.28 127.618 267.748 126C259.28 124.382 252.618 117.72 251 109.252C249.382 117.72 242.719 124.382 234.252 126ZM231 125.637C241.682 125.253 250.253 116.682 250.637 106H251.363C251.747 116.682 260.318 125.253 271 125.637V126.363C260.318 126.747 251.747 135.318 251.363 146H250.637C250.253 135.318 241.682 126.747 231 126.363V125.637Z" fill="white"/>
<path fill-rule="evenodd" clip-rule="evenodd" d="M234.252 126C242.719 127.618 249.382 134.281 251 142.748C252.618 134.281 259.28 127.618 267.748 126C259.28 124.382 252.618 117.72 251 109.252C249.382 117.72 242.719 124.382 234.252 126ZM231 125.637C241.682 125.253 250.253 116.682 250.637 106H251.363C251.747 116.682 260.318 125.253 271 125.637V126.363C260.318 126.747 251.747 135.318 251.363 146H250.637C250.253 135.318 241.682 126.747 231 126.363V125.637Z" fill="white"/>
<path fill-rule="evenodd" clip-rule="evenodd" d="M253.364 139.988C254.137 136.433 254.621 131.487 254.621 126C254.621 120.513 254.137 115.567 253.364 112.012C252.976 110.229 252.524 108.835 252.046 107.904C251.806 107.438 251.578 107.124 251.378 106.936C251.181 106.75 251.058 106.727 251 106.727C250.942 106.727 250.819 106.75 250.622 106.936C250.422 107.124 250.194 107.438 249.954 107.904C249.476 108.835 249.024 110.229 248.636 112.012C247.863 115.567 247.379 120.513 247.379 126C247.379 131.487 247.863 136.433 248.636 139.988C249.024 141.771 249.476 143.165 249.954 144.096C250.194 144.562 250.422 144.876 250.622 145.064C250.819 145.25 250.942 145.273 251 145.273C251.058 145.273 251.181 145.25 251.378 145.064C251.578 144.876 251.806 144.562 252.046 144.096C252.524 143.165 252.976 141.771 253.364 139.988ZM251 146C253.401 146 255.348 137.046 255.348 126C255.348 114.954 253.401 106 251 106C248.599 106 246.652 114.954 246.652 126C246.652 137.046 248.599 146 251 146Z" fill="white"/>
<path fill-rule="evenodd" clip-rule="evenodd" d="M253.364 139.988C254.137 136.433 254.621 131.487 254.621 126C254.621 120.513 254.137 115.567 253.364 112.012C252.976 110.229 252.524 108.835 252.046 107.904C251.806 107.438 251.578 107.124 251.378 106.936C251.181 106.75 251.058 106.727 251 106.727C250.942 106.727 250.819 106.75 250.622 106.936C250.422 107.124 250.194 107.438 249.954 107.904C249.476 108.835 249.024 110.229 248.636 112.012C247.863 115.567 247.379 120.513 247.379 126C247.379 131.487 247.863 136.433 248.636 139.988C249.024 141.771 249.476 143.165 249.954 144.096C250.194 144.562 250.422 144.876 250.622 145.064C250.819 145.25 250.942 145.273 251 145.273C251.058 145.273 251.181 145.25 251.378 145.064C251.578 144.876 251.806 144.562 252.046 144.096C252.524 143.165 252.976 141.771 253.364 139.988ZM251 146C253.401 146 255.348 137.046 255.348 126C255.348 114.954 253.401 106 251 106C248.599 106 246.652 114.954 246.652 126C246.652 137.046 248.599 146 251 146Z" fill="white"/>
<path fill-rule="evenodd" clip-rule="evenodd" d="M237.012 128.364C240.567 129.137 245.513 129.621 251 129.621C256.487 129.621 261.433 129.137 264.988 128.364C266.771 127.976 268.165 127.524 269.096 127.046C269.562 126.806 269.876 126.578 270.064 126.378C270.25 126.181 270.273 126.058 270.273 126C270.273 125.942 270.25 125.819 270.064 125.622C269.876 125.422 269.562 125.194 269.096 124.954C268.165 124.476 266.771 124.024 264.988 123.636C261.433 122.863 256.487 122.379 251 122.379C245.513 122.379 240.567 122.863 237.012 123.636C235.229 124.024 233.835 124.476 232.904 124.954C232.438 125.194 232.124 125.422 231.936 125.622C231.75 125.819 231.727 125.942 231.727 126C231.727 126.058 231.75 126.181 231.936 126.378C232.124 126.578 232.438 126.806 232.904 127.046C233.835 127.524 235.229 127.976 237.012 128.364ZM231 126C231 128.401 239.954 130.348 251 130.348C262.046 130.348 271 128.401 271 126C271 123.599 262.046 121.652 251 121.652C239.954 121.652 231 123.599 231 126Z" fill="white"/>
<path fill-rule="evenodd" clip-rule="evenodd" d="M237.012 128.364C240.567 129.137 245.513 129.621 251 129.621C256.487 129.621 261.433 129.137 264.988 128.364C266.771 127.976 268.165 127.524 269.096 127.046C269.562 126.806 269.876 126.578 270.064 126.378C270.25 126.181 270.273 126.058 270.273 126C270.273 125.942 270.25 125.819 270.064 125.622C269.876 125.422 269.562 125.194 269.096 124.954C268.165 124.476 266.771 124.024 264.988 123.636C261.433 122.863 256.487 122.379 251 122.379C245.513 122.379 240.567 122.863 237.012 123.636C235.229 124.024 233.835 124.476 232.904 124.954C232.438 125.194 232.124 125.422 231.936 125.622C231.75 125.819 231.727 125.942 231.727 126C231.727 126.058 231.75 126.181 231.936 126.378C232.124 126.578 232.438 126.806 232.904 127.046C233.835 127.524 235.229 127.976 237.012 128.364ZM231 126C231 128.401 239.954 130.348 251 130.348C262.046 130.348 271 128.401 271 126C271 123.599 262.046 121.652 251 121.652C239.954 121.652 231 123.599 231 126Z" fill="white"/>
<path fill-rule="evenodd" clip-rule="evenodd" d="M1108.76 321C1115.96 322.376 1121.62 328.038 1123 335.236C1124.38 328.038 1130.04 322.376 1137.24 321C1130.04 319.624 1124.38 313.962 1123 306.764C1121.62 313.962 1115.96 319.624 1108.76 321ZM1106 320.691C1115.08 320.365 1122.37 313.08 1122.69 304H1123.31C1123.63 313.08 1130.92 320.365 1140 320.691V321.309C1130.92 321.635 1123.63 328.92 1123.31 338H1122.69C1122.37 328.92 1115.08 321.635 1106 321.309V320.691Z" fill="white"/>
<path fill-rule="evenodd" clip-rule="evenodd" d="M1108.76 321C1115.96 322.376 1121.62 328.038 1123 335.236C1124.38 328.038 1130.04 322.376 1137.24 321C1130.04 319.624 1124.38 313.962 1123 306.764C1121.62 313.962 1115.96 319.624 1108.76 321ZM1106 320.691C1115.08 320.365 1122.37 313.08 1122.69 304H1123.31C1123.63 313.08 1130.92 320.365 1140 320.691V321.309C1130.92 321.635 1123.63 328.92 1123.31 338H1122.69C1122.37 328.92 1115.08 321.635 1106 321.309V320.691Z" fill="white"/>
<path fill-rule="evenodd" clip-rule="evenodd" d="M1125.01 332.89C1125.67 329.868 1126.08 325.664 1126.08 321C1126.08 316.336 1125.67 312.132 1125.01 309.11C1124.68 307.595 1124.3 306.409 1123.89 305.618C1123.69 305.222 1123.49 304.955 1123.32 304.795C1123.15 304.638 1123.05 304.618 1123 304.618C1122.95 304.618 1122.85 304.638 1122.68 304.795C1122.51 304.955 1122.31 305.222 1122.11 305.618C1121.7 306.409 1121.32 307.595 1120.99 309.11C1120.33 312.132 1119.92 316.336 1119.92 321C1119.92 325.664 1120.33 329.868 1120.99 332.89C1121.32 334.405 1121.7 335.591 1122.11 336.382C1122.31 336.778 1122.51 337.045 1122.68 337.205C1122.85 337.362 1122.95 337.382 1123 337.382C1123.05 337.382 1123.15 337.362 1123.32 337.205C1123.49 337.045 1123.69 336.778 1123.89 336.382C1124.3 335.591 1124.68 334.405 1125.01 332.89ZM1123 338C1125.04 338 1126.7 330.389 1126.7 321C1126.7 311.611 1125.04 304 1123 304C1120.96 304 1119.3 311.611 1119.3 321C1119.3 330.389 1120.96 338 1123 338Z" fill="white"/>
<path fill-rule="evenodd" clip-rule="evenodd" d="M1125.01 332.89C1125.67 329.868 1126.08 325.664 1126.08 321C1126.08 316.336 1125.67 312.132 1125.01 309.11C1124.68 307.595 1124.3 306.409 1123.89 305.618C1123.69 305.222 1123.49 304.955 1123.32 304.795C1123.15 304.638 1123.05 304.618 1123 304.618C1122.95 304.618 1122.85 304.638 1122.68 304.795C1122.51 304.955 1122.31 305.222 1122.11 305.618C1121.7 306.409 1121.32 307.595 1120.99 309.11C1120.33 312.132 1119.92 316.336 1119.92 321C1119.92 325.664 1120.33 329.868 1120.99 332.89C1121.32 334.405 1121.7 335.591 1122.11 336.382C1122.31 336.778 1122.51 337.045 1122.68 337.205C1122.85 337.362 1122.95 337.382 1123 337.382C1123.05 337.382 1123.15 337.362 1123.32 337.205C1123.49 337.045 1123.69 336.778 1123.89 336.382C1124.3 335.591 1124.68 334.405 1125.01 332.89ZM1123 338C1125.04 338 1126.7 330.389 1126.7 321C1126.7 311.611 1125.04 304 1123 304C1120.96 304 1119.3 311.611 1119.3 321C1119.3 330.389 1120.96 338 1123 338Z" fill="white"/>
<path fill-rule="evenodd" clip-rule="evenodd" d="M1111.11 323.01C1114.13 323.666 1118.34 324.078 1123 324.078C1127.66 324.078 1131.87 323.666 1134.89 323.01C1136.41 322.68 1137.59 322.296 1138.38 321.889C1138.78 321.685 1139.04 321.491 1139.2 321.321C1139.36 321.154 1139.38 321.049 1139.38 321C1139.38 320.951 1139.36 320.846 1139.2 320.679C1139.04 320.509 1138.78 320.315 1138.38 320.111C1137.59 319.704 1136.41 319.32 1134.89 318.99C1131.87 318.334 1127.66 317.922 1123 317.922C1118.34 317.922 1114.13 318.334 1111.11 318.99C1109.59 319.32 1108.41 319.704 1107.62 320.111C1107.22 320.315 1106.96 320.509 1106.8 320.679C1106.64 320.846 1106.62 320.951 1106.62 321C1106.62 321.049 1106.64 321.154 1106.8 321.321C1106.96 321.491 1107.22 321.685 1107.62 321.889C1108.41 322.296 1109.59 322.68 1111.11 323.01ZM1106 321C1106 323.041 1113.61 324.696 1123 324.696C1132.39 324.696 1140 323.041 1140 321C1140 318.959 1132.39 317.304 1123 317.304C1113.61 317.304 1106 318.959 1106 321Z" fill="white"/>
<path fill-rule="evenodd" clip-rule="evenodd" d="M1111.11 323.01C1114.13 323.666 1118.34 324.078 1123 324.078C1127.66 324.078 1131.87 323.666 1134.89 323.01C1136.41 322.68 1137.59 322.296 1138.38 321.889C1138.78 321.685 1139.04 321.491 1139.2 321.321C1139.36 321.154 1139.38 321.049 1139.38 321C1139.38 320.951 1139.36 320.846 1139.2 320.679C1139.04 320.509 1138.78 320.315 1138.38 320.111C1137.59 319.704 1136.41 319.32 1134.89 318.99C1131.87 318.334 1127.66 317.922 1123 317.922C1118.34 317.922 1114.13 318.334 1111.11 318.99C1109.59 319.32 1108.41 319.704 1107.62 320.111C1107.22 320.315 1106.96 320.509 1106.8 320.679C1106.64 320.846 1106.62 320.951 1106.62 321C1106.62 321.049 1106.64 321.154 1106.8 321.321C1106.96 321.491 1107.22 321.685 1107.62 321.889C1108.41 322.296 1109.59 322.68 1111.11 323.01ZM1106 321C1106 323.041 1113.61 324.696 1123 324.696C1132.39 324.696 1140 323.041 1140 321C1140 318.959 1132.39 317.304 1123 317.304C1113.61 317.304 1106 318.959 1106 321Z" fill="white"/>
<path fill-rule="evenodd" clip-rule="evenodd" d="M224.634 641.5C236.7 643.806 246.194 653.3 248.5 665.366C250.806 653.3 260.3 643.806 272.366 641.5C260.3 639.194 250.806 629.7 248.5 617.634C246.194 629.7 236.7 639.194 224.634 641.5ZM220 640.983C235.222 640.436 247.436 628.222 247.982 613H249.017C249.564 628.222 261.778 640.436 277 640.983V642.018C261.778 642.564 249.564 654.778 249.017 670H247.982C247.436 654.778 235.222 642.564 220 642.018V640.983Z" fill="#E1CDFF"/>
<path fill-rule="evenodd" clip-rule="evenodd" d="M224.634 641.5C236.7 643.806 246.194 653.3 248.5 665.366C250.806 653.3 260.3 643.806 272.366 641.5C260.3 639.194 250.806 629.7 248.5 617.634C246.194 629.7 236.7 639.194 224.634 641.5ZM220 640.983C235.222 640.436 247.436 628.222 247.982 613H249.017C249.564 628.222 261.778 640.436 277 640.983V642.018C261.778 642.564 249.564 654.778 249.017 670H247.982C247.436 654.778 235.222 642.564 220 642.018V640.983Z" fill="#E1CDFF"/>
<path fill-rule="evenodd" clip-rule="evenodd" d="M251.869 661.433C252.97 656.367 253.66 649.319 253.66 641.5C253.66 633.681 252.97 626.633 251.869 621.567C251.316 619.026 250.672 617.039 249.99 615.713C249.649 615.049 249.324 614.602 249.039 614.333C248.758 614.069 248.582 614.036 248.5 614.036C248.418 614.036 248.241 614.069 247.961 614.333C247.676 614.602 247.351 615.049 247.009 615.713C246.328 617.039 245.684 619.026 245.131 621.567C244.03 626.633 243.34 633.681 243.34 641.5C243.34 649.319 244.03 656.367 245.131 661.433C245.684 663.974 246.328 665.961 247.009 667.287C247.351 667.951 247.676 668.398 247.961 668.667C248.241 668.931 248.418 668.964 248.5 668.964C248.582 668.964 248.758 668.931 249.039 668.667C249.324 668.398 249.649 667.951 249.99 667.287C250.672 665.961 251.316 663.974 251.869 661.433ZM248.5 670C251.922 670 254.696 657.24 254.696 641.5C254.696 625.76 251.922 613 248.5 613C245.078 613 242.304 625.76 242.304 641.5C242.304 657.24 245.078 670 248.5 670Z" fill="#E1CDFF"/>
<path fill-rule="evenodd" clip-rule="evenodd" d="M251.869 661.433C252.97 656.367 253.66 649.319 253.66 641.5C253.66 633.681 252.97 626.633 251.869 621.567C251.316 619.026 250.672 617.039 249.99 615.713C249.649 615.049 249.324 614.602 249.039 614.333C248.758 614.069 248.582 614.036 248.5 614.036C248.418 614.036 248.241 614.069 247.961 614.333C247.676 614.602 247.351 615.049 247.009 615.713C246.328 617.039 245.684 619.026 245.131 621.567C244.03 626.633 243.34 633.681 243.34 641.5C243.34 649.319 244.03 656.367 245.131 661.433C245.684 663.974 246.328 665.961 247.009 667.287C247.351 667.951 247.676 668.398 247.961 668.667C248.241 668.931 248.418 668.964 248.5 668.964C248.582 668.964 248.758 668.931 249.039 668.667C249.324 668.398 249.649 667.951 249.99 667.287C250.672 665.961 251.316 663.974 251.869 661.433ZM248.5 670C251.922 670 254.696 657.24 254.696 641.5C254.696 625.76 251.922 613 248.5 613C245.078 613 242.304 625.76 242.304 641.5C242.304 657.24 245.078 670 248.5 670Z" fill="#E1CDFF"/>
<path fill-rule="evenodd" clip-rule="evenodd" d="M228.567 644.869C233.633 645.97 240.681 646.66 248.5 646.66C256.319 646.66 263.367 645.97 268.433 644.869C270.974 644.316 272.961 643.672 274.287 642.99C274.951 642.649 275.398 642.324 275.667 642.039C275.931 641.758 275.964 641.582 275.964 641.5C275.964 641.418 275.931 641.242 275.667 640.961C275.398 640.676 274.951 640.351 274.287 640.01C272.961 639.328 270.974 638.684 268.433 638.131C263.367 637.03 256.319 636.34 248.5 636.34C240.681 636.34 233.633 637.03 228.567 638.131C226.026 638.684 224.039 639.328 222.713 640.01C222.049 640.351 221.602 640.676 221.333 640.961C221.069 641.242 221.036 641.418 221.036 641.5C221.036 641.582 221.069 641.758 221.333 642.039C221.602 642.324 222.049 642.649 222.713 642.99C224.039 643.672 226.026 644.316 228.567 644.869ZM220 641.5C220 644.922 232.76 647.696 248.5 647.696C264.24 647.696 277 644.922 277 641.5C277 638.078 264.24 635.304 248.5 635.304C232.76 635.304 220 638.078 220 641.5Z" fill="#E1CDFF"/>
<path fill-rule="evenodd" clip-rule="evenodd" d="M228.567 644.869C233.633 645.97 240.681 646.66 248.5 646.66C256.319 646.66 263.367 645.97 268.433 644.869C270.974 644.316 272.961 643.672 274.287 642.99C274.951 642.649 275.398 642.324 275.667 642.039C275.931 641.758 275.964 641.582 275.964 641.5C275.964 641.418 275.931 641.242 275.667 640.961C275.398 640.676 274.951 640.351 274.287 640.01C272.961 639.328 270.974 638.684 268.433 638.131C263.367 637.03 256.319 636.34 248.5 636.34C240.681 636.34 233.633 637.03 228.567 638.131C226.026 638.684 224.039 639.328 222.713 640.01C222.049 640.351 221.602 640.676 221.333 640.961C221.069 641.242 221.036 641.418 221.036 641.5C221.036 641.582 221.069 641.758 221.333 642.039C221.602 642.324 222.049 642.649 222.713 642.99C224.039 643.672 226.026 644.316 228.567 644.869ZM220 641.5C220 644.922 232.76 647.696 248.5 647.696C264.24 647.696 277 644.922 277 641.5C277 638.078 264.24 635.304 248.5 635.304C232.76 635.304 220 638.078 220 641.5Z" fill="#E1CDFF"/>
<path d="M61.5 236L63.1241 249.019C65.0545 264.493 76.9154 276.85 92.271 279.385L96 280L92.271 280.616C76.9154 283.15 65.0545 295.507 63.1241 310.981L61.5 324L59.8759 310.981C57.9455 295.507 46.0846 283.15 30.729 280.616L27 280L30.729 279.384C46.0846 276.85 57.9455 264.493 59.8759 249.019L61.5 236Z" fill="#E1CDFF"/>
<path d="M459.5 454L462.772 480.333C466.66 511.634 490.554 536.628 521.488 541.755L529 543L521.488 544.245C490.554 549.372 466.66 574.366 462.772 605.667L459.5 632L456.228 605.667C452.34 574.366 428.446 549.372 397.512 544.245L390 543L397.512 541.755C428.446 536.628 452.34 511.634 456.228 480.333L459.5 454Z" fill="#E1CDFF"/>
<path fill-rule="evenodd" clip-rule="evenodd" d="M1051.5 604.86L1047.17 631.167L1020.86 635.5L1047.17 639.833L1051.5 666.14L1055.83 639.833L1082.14 635.5L1055.83 631.167L1051.5 604.86ZM1046.08 630.075L1050.88 600.898H1052.12L1056.93 630.075L1086.1 634.881V636.119L1056.93 640.925L1052.12 670.102H1050.88L1046.08 640.925L1016.9 636.119V634.881L1046.08 630.075Z" fill="white"/>
<path fill-rule="evenodd" clip-rule="evenodd" d="M166 455.566L164.242 466.242L153.567 468L164.242 469.758L166 480.434L167.759 469.758L178.434 468L167.759 466.242L166 455.566ZM163.799 465.799L165.749 453.959H166.252L168.202 465.799L180.042 467.749V468.251L168.202 470.201L166.252 482.041H165.749L163.799 470.201L151.959 468.251V467.749L163.799 465.799Z" fill="white"/>
<path fill-rule="evenodd" clip-rule="evenodd" d="M1086 33.5662L1084.24 44.2416L1073.57 46L1084.24 47.7584L1086 58.4338L1087.76 47.7584L1098.43 46L1087.76 44.2416L1086 33.5662ZM1083.8 43.7986L1085.75 31.9586H1086.25L1088.2 43.7986L1100.04 45.7488V46.2511L1088.2 48.2014L1086.25 60.0414H1085.75L1083.8 48.2014L1071.96 46.2511V45.7488L1083.8 43.7986Z" fill="white"/>
<path fill-rule="evenodd" clip-rule="evenodd" d="M500.5 34.1883L496.921 55.9204L475.189 59.5L496.921 63.0796L500.5 84.8117L504.08 63.0796L525.812 59.5L504.08 55.9204L500.5 34.1883ZM496.019 55.0186L499.989 30.9158H501.012L504.982 55.0186L529.084 58.9887V60.0113L504.982 63.9814L501.012 88.0842H499.989L496.019 63.9814L471.916 60.0113V58.9887L496.019 55.0186Z" fill="#E1CDFF"/>
<path fill-rule="evenodd" clip-rule="evenodd" d="M714.036 570.915L713.096 597.096L686.915 598.036L713.096 598.976L714.036 625.156L714.976 598.976L741.156 598.036L714.976 597.096L714.036 570.915ZM711.164 595.164L713.037 543H715.035L716.907 595.164L769.072 597.037V599.035L716.907 600.907L715.035 653.072H713.037L711.164 600.907L659 599.035V597.037L711.164 595.164Z" fill="white"/>
<path fill-rule="evenodd" clip-rule="evenodd" d="M18.5 550.021L17.8597 567.86L0.0207577 568.5L17.8597 569.14L18.5 586.979L19.1403 569.14L36.9792 568.5L19.1403 567.86L18.5 550.021ZM16.5434 566.543L17.8191 531H19.1809L20.4566 566.543L56 567.819V569.181L20.4566 570.457L19.1809 606H17.8191L16.5434 570.457L-19 569.181V567.819L16.5434 566.543Z" fill="white"/>
<path fill-rule="evenodd" clip-rule="evenodd" d="M572.5 130.977L571.962 145.962L556.977 146.5L571.962 147.038L572.5 162.023L573.038 147.038L588.023 146.5L573.038 145.962L572.5 130.977ZM570.856 144.856L571.928 115H573.072L574.144 144.856L604 145.928V147.072L574.144 148.144L573.072 178H571.928L570.856 148.144L541 147.072V145.928L570.856 144.856Z" fill="white"/>
<path fill-rule="evenodd" clip-rule="evenodd" d="M84 167.159L83.6244 177.624L73.1588 178L83.6244 178.376L84 188.841L84.3756 178.376L94.8412 178L84.3756 177.624L84 167.159ZM82.8521 176.852L83.6005 156H84.3995L85.1479 176.852L106 177.601V178.399L85.1479 179.148L84.3995 200H83.6005L82.8521 179.148L62 178.399V177.601L82.8521 176.852Z" fill="white"/>
<path fill-rule="evenodd" clip-rule="evenodd" d="M1263 128.738L1262.44 144.437L1246.74 145L1262.44 145.563L1263 161.262L1263.56 145.563L1279.26 145L1263.56 144.437L1263 128.738ZM1261.28 143.278L1262.4 112H1263.6L1264.72 143.278L1296 144.401V145.599L1264.72 146.722L1263.6 178H1262.4L1261.28 146.722L1230 145.599V144.401L1261.28 143.278Z" fill="white"/>
<path d="M776.5 408L777.134 425.11C777.522 435.579 785.922 443.974 796.39 444.356L814 445L796.39 445.644C785.922 446.026 777.522 454.421 777.134 464.89L776.5 482L775.866 464.89C775.478 454.421 767.078 446.026 756.61 445.644L739 445L756.61 444.356C767.078 443.974 775.478 435.579 775.866 425.11L776.5 408Z" fill="#E1CDFF"/>
<path d="M795 412.957L786.994 428.092C782.096 437.352 785.172 448.822 794.047 454.388L808.976 463.75L793.403 455.502C784.146 450.6 772.674 453.67 767.104 462.542L758 477.043L766.006 461.908C770.904 452.648 767.828 441.178 758.953 435.612L744.024 426.25L759.597 434.498C768.854 439.4 780.326 436.33 785.896 427.458L795 412.957Z" fill="#E1CDFF"/>
<path d="M808.543 426.5L794.042 435.604C785.17 441.174 782.1 452.646 787.002 461.903L795.25 477.476L785.888 462.547C780.322 453.672 768.852 450.596 759.592 455.494L744.457 463.5L758.958 454.396C767.83 448.826 770.9 437.354 765.998 428.097L757.75 412.524L767.112 427.453C772.678 436.328 784.148 439.404 793.408 434.506L808.543 426.5Z" fill="#E1CDFF"/>
<path fill-rule="evenodd" clip-rule="evenodd" d="M775.396 77.5167C771.438 76.222 769 74.4519 769 72.5C769 70.5481 771.438 68.778 775.396 67.4833C773.457 66.5269 772.331 65.3868 772.331 64.1628C772.331 62.5555 774.272 61.0929 777.446 60.0009C776.717 59.4335 776.315 58.8122 776.315 58.161C776.315 55.4888 783.086 53.3216 791.449 53.3128L791.5 53L791.551 53.3128C799.914 53.3216 806.685 55.4888 806.685 58.161C806.685 58.8122 806.283 59.4335 805.554 60.0008C808.728 61.0929 810.669 62.5555 810.669 64.1628C810.669 65.3868 809.543 66.5269 807.604 67.4833C811.562 68.778 814 70.5481 814 72.5C814 74.4519 811.562 76.222 807.604 77.5167C809.543 78.4731 810.669 79.6132 810.669 80.8372C810.669 82.4445 808.728 83.9071 805.554 84.9991C806.283 85.5665 806.685 86.1878 806.685 86.839C806.685 89.5112 799.914 91.6784 791.551 91.6872L791.5 92L791.449 91.6872C783.086 91.6784 776.315 89.5112 776.315 86.839C776.315 86.1878 776.717 85.5665 777.446 84.9991C774.272 83.9071 772.331 82.4445 772.331 80.8372C772.331 79.6132 773.457 78.4731 775.396 77.5167ZM772.102 72.5L786.674 70.0871C782.529 69.7439 778.928 68.9689 776.371 67.9214C776.179 67.9786 775.989 68.0369 775.804 68.0963C773.807 68.7338 772.242 69.478 771.192 70.2708C770.129 71.0729 769.705 71.8336 769.705 72.5C769.705 73.1664 770.129 73.9271 771.192 74.7291C772.242 75.522 773.807 76.2662 775.804 76.9037C775.989 76.9631 776.179 77.0214 776.371 77.0786C778.928 76.0311 782.529 75.2561 786.674 74.9129L772.102 72.5ZM806.629 77.0786C806.821 77.0214 807.011 76.9631 807.196 76.9037C809.193 76.2662 810.758 75.522 811.808 74.7291C812.871 73.9271 813.295 73.1664 813.295 72.5C813.295 71.8336 812.871 71.0729 811.808 70.2708C810.758 69.478 809.193 68.7338 807.196 68.0963C807.011 68.0369 806.821 67.9786 806.629 67.9214C804.072 68.9689 800.471 69.7439 796.326 70.0871L810.898 72.5L796.326 74.9129C800.471 75.2561 804.072 76.0311 806.629 77.0786ZM806.587 67.1707C807.465 66.7956 808.188 66.3938 808.739 65.9779C809.633 65.3031 809.963 64.6823 809.963 64.1628C809.963 63.6433 809.633 63.0225 808.739 62.3477C807.857 61.682 806.536 61.0524 804.841 60.5112L804.805 60.4997C802.469 61.8515 798.17 62.8093 793.136 62.9814L793.523 65.345C798.53 65.4875 803.065 66.1536 806.587 67.1707ZM793.64 66.0579C798.119 66.1942 802.196 66.7536 805.475 67.6015C805.27 67.6739 805.059 67.7449 804.841 67.8144C802.051 68.7049 798.355 69.323 794.206 69.5124L793.64 66.0579ZM789.36 66.0579L788.794 69.5124C784.645 69.323 780.949 68.7049 778.159 67.8144C777.942 67.7449 777.73 67.6739 777.525 67.6015C780.804 66.7536 784.881 66.1942 789.36 66.0579ZM789.477 65.345C784.47 65.4875 779.935 66.1536 776.413 67.1706C775.535 66.7956 774.812 66.3938 774.261 65.9779C773.367 65.3031 773.037 64.6823 773.037 64.1628C773.037 63.6433 773.367 63.0225 774.261 62.3477C775.143 61.682 776.464 61.0524 778.159 60.5112L778.195 60.4997C780.531 61.8515 784.83 62.8093 789.864 62.9814L789.477 65.345ZM805.475 77.3985C802.196 78.2464 798.119 78.8058 793.64 78.9421L794.206 75.4876C798.355 75.677 802.051 76.2951 804.841 77.1856C805.059 77.2551 805.27 77.3261 805.475 77.3985ZM793.523 79.6549C798.53 79.5125 803.065 78.8464 806.587 77.8293C807.465 78.2043 808.188 78.6062 808.739 79.0221C809.633 79.6969 809.963 80.3177 809.963 80.8372C809.963 81.3567 809.633 81.9775 808.739 82.6523C807.857 83.318 806.536 83.9475 804.841 84.4888L804.805 84.5003C802.469 83.1485 798.17 82.1907 793.136 82.0186L793.523 79.6549ZM789.477 79.6549L789.864 82.0186C784.83 82.1907 780.531 83.1485 778.195 84.5003L778.159 84.4888C776.464 83.9475 775.143 83.3179 774.261 82.6523C773.367 81.9775 773.037 81.3567 773.037 80.8372C773.037 80.3177 773.367 79.6969 774.261 79.0221C774.812 78.6062 775.535 78.2043 776.413 77.8293C779.935 78.8464 784.47 79.5125 789.477 79.6549ZM789.36 78.9421C784.881 78.8058 780.804 78.2464 777.525 77.3985C777.73 77.3261 777.942 77.2551 778.159 77.1856C780.949 76.2951 784.645 75.677 788.794 75.4876L789.36 78.9421ZM805.068 59.4811C804.958 59.5642 804.839 59.6467 804.711 59.7285C801.459 58.7405 797.121 58.1134 792.327 58.0484L791.667 54.0221C795.742 54.0364 799.398 54.5702 802.024 55.4086C803.359 55.8348 804.388 56.3274 805.068 56.8409C805.761 57.3635 805.98 57.817 805.98 58.161C805.98 58.5049 805.761 58.9584 805.068 59.4811ZM803.831 60.2115C800.767 59.3675 796.809 58.8277 792.444 58.7593L793.02 62.2758C796.548 62.1621 799.692 61.6578 802.024 60.9134C802.709 60.6948 803.313 60.4588 803.831 60.2115ZM789.98 62.2758L790.556 58.7593C786.191 58.8277 782.233 59.3675 779.169 60.2115C779.687 60.4588 780.291 60.6948 780.976 60.9134C783.308 61.6578 786.452 62.1621 789.98 62.2758ZM778.289 59.7285C781.541 58.7405 785.879 58.1134 790.673 58.0484L791.333 54.0221C787.258 54.0364 783.602 54.5702 780.976 55.4086C779.641 55.8348 778.612 56.3274 777.932 56.8409C777.239 57.3635 777.02 57.817 777.02 58.161C777.02 58.5049 777.239 58.9584 777.932 59.4811C778.042 59.5642 778.161 59.6467 778.289 59.7285ZM778.289 85.2715C778.161 85.3533 778.042 85.4358 777.932 85.5189C777.239 86.0416 777.02 86.4951 777.02 86.839C777.02 87.183 777.239 87.6365 777.932 88.1591C778.612 88.6726 779.641 89.1652 780.976 89.5914C783.602 90.4298 787.258 90.9636 791.333 90.9779L790.673 86.9516C785.879 86.8866 781.541 86.2595 778.289 85.2715ZM790.556 86.2407C786.191 86.1723 782.233 85.6325 779.169 84.7885C779.687 84.5412 780.291 84.3052 780.976 84.0867C783.308 83.3422 786.452 82.8379 789.98 82.7242L790.556 86.2407ZM792.327 86.9516L791.667 90.9779C795.742 90.9636 799.398 90.4298 802.024 89.5914C803.359 89.1652 804.388 88.6726 805.068 88.1591C805.761 87.6365 805.98 87.183 805.98 86.839C805.98 86.4951 805.761 86.0416 805.068 85.5189C804.958 85.4358 804.839 85.3533 804.711 85.2715C801.459 86.2595 797.121 86.8866 792.327 86.9516ZM803.831 84.7885C800.767 85.6325 796.809 86.1723 792.444 86.2407L793.02 82.7242C796.548 82.8379 799.692 83.3422 802.024 84.0867C802.709 84.3052 803.313 84.5412 803.831 84.7885Z" fill="#E1CDFF"/>
</g>
<defs>
<clipPath id="clip0_4_442">
<rect width="1280" height="720" fill="white"/>
</clipPath>
</defs>
</svg>
