<svg width="800" height="800" viewBox="0 0 800 800" fill="none" xmlns="http://www.w3.org/2000/svg">
<path d="M298.989 298.989C308.752 289.226 324.582 289.226 334.344 298.989L400 364.647L465.657 298.99C475.42 289.227 491.247 289.227 501.01 298.99C510.774 308.753 510.774 324.582 501.01 334.347L435.357 400L501.01 465.654C510.774 475.417 510.774 491.247 501.01 501.01C491.247 510.774 475.417 510.774 465.654 501.01L400 435.357L334.347 501.01C324.582 510.774 308.753 510.774 298.99 501.01C289.227 491.247 289.227 475.42 298.99 465.657L364.647 400L298.989 334.344C289.226 324.582 289.226 308.752 298.989 298.989Z" fill="#BE407F"/>
</svg>
