<svg width="800" height="800" viewBox="0 0 800 800" fill="none" xmlns="http://www.w3.org/2000/svg">
<path fill-rule="evenodd" clip-rule="evenodd" d="M399.999 733.334C584.093 733.334 733.333 584.094 733.333 400C733.333 215.905 584.093 66.667 399.999 66.667C215.904 66.667 66.666 215.905 66.666 400C66.666 584.094 215.904 733.334 399.999 733.334ZM334.343 298.99C324.581 289.227 308.751 289.227 298.988 298.99C289.225 308.753 289.225 324.582 298.988 334.344L364.646 400.001L298.989 465.657C289.226 475.421 289.226 491.247 298.989 501.011C308.752 510.774 324.581 510.774 334.346 501.011L399.999 435.357L465.653 501.011C475.416 510.774 491.246 510.774 501.009 501.011C510.773 491.247 510.773 475.417 501.009 465.654L435.356 400.001L501.009 334.347C510.773 324.583 510.773 308.753 501.009 298.99C491.246 289.227 475.419 289.227 465.656 298.99L399.999 364.647L334.343 298.99Z" fill="#BE407F"/>
</svg>
