<svg width="37" height="28" viewBox="0 0 37 28" fill="none" xmlns="http://www.w3.org/2000/svg">
<path fill-rule="evenodd" clip-rule="evenodd" d="M18.5 9.8C16.342 9.8 14.6 11.676 14.6 14C14.6 16.324 16.342 18.2 18.5 18.2C20.658 18.2 22.4 16.324 22.4 14C22.4 11.676 20.658 9.8 18.5 9.8ZM12 14C12 10.1296 14.9061 7 18.5 7C22.0939 7 25 10.1296 25 14C25 17.8704 22.0939 21 18.5 21C14.9061 21 12 17.8704 12 14Z" fill="#FF99C1"/>
<path fill-rule="evenodd" clip-rule="evenodd" d="M1.43581 9.25233C5.6682 3.44154 11.82 0 18.5 0C25.1801 0 31.332 3.44168 35.5644 9.25266C36.5507 10.603 37 12.3376 37 14C37 15.6624 36.5507 17.397 35.5644 18.7473C31.332 24.5582 25.1801 28 18.5 28C11.8201 28 5.6683 24.5584 1.43593 18.7478C0.449387 17.3974 0 15.6626 0 14C0 12.3375 0.449355 10.6027 1.43581 9.25233ZM18.5 2.61682C12.7824 2.61682 7.37969 5.55531 3.56939 10.7869L3.56814 10.7887C2.9747 11.6007 2.63407 12.7642 2.63407 14C2.63407 15.2358 2.9747 16.3993 3.56813 17.2113L3.56938 17.213C7.3797 22.4446 12.7825 25.3832 18.5 25.3832C24.2175 25.3832 29.6203 22.4446 33.4306 17.213L33.4319 17.2113C34.0253 16.3993 34.3659 15.2358 34.3659 14C34.3659 12.7642 34.0253 11.6007 33.4319 10.7887L33.4306 10.7869C29.6203 5.55531 24.2176 2.61682 18.5 2.61682Z" fill="#FF99C1"/>
</svg>
