<svg width="26" height="28" viewBox="0 0 26 28" fill="none" xmlns="http://www.w3.org/2000/svg">
<path opacity="0.4" d="M25.4381 9.21204V18.788C25.4381 20.356 24.5981 21.812 23.2401 22.61L14.9241 27.412C13.5661 28.196 11.8861 28.196 10.5141 27.412L2.198 22.61C0.84 21.826 0 20.37 0 18.788V9.21204C0 7.64404 0.84 6.18799 2.198 5.38999L10.5141 0.588C11.8721 -0.196 13.5521 -0.196 14.9241 0.588L23.2401 5.38999C24.5981 6.18799 25.4381 7.63004 25.4381 9.21204Z" fill="#FF99C1"/>
<path d="M12.7257 16.45C12.1517 16.45 11.6757 15.974 11.6757 15.4V8.05C11.6757 7.476 12.1517 7 12.7257 7C13.2997 7 13.7757 7.476 13.7757 8.05V15.4C13.7757 15.974 13.2997 16.45 12.7257 16.45Z" fill="#FF99C1"/>
<path d="M12.7257 21.3498C12.5437 21.3498 12.3617 21.3076 12.1937 21.2376C12.0117 21.1676 11.8717 21.0698 11.7317 20.9438C11.6057 20.8038 11.5077 20.6498 11.4237 20.4818C11.3537 20.3138 11.3257 20.1318 11.3257 19.9498C11.3257 19.5858 11.4657 19.2216 11.7317 18.9556C11.8717 18.8296 12.0117 18.7318 12.1937 18.6618C12.7117 18.4378 13.3277 18.5636 13.7197 18.9556C13.8457 19.0956 13.9437 19.2358 14.0137 19.4178C14.0837 19.5858 14.1257 19.7678 14.1257 19.9498C14.1257 20.1318 14.0837 20.3138 14.0137 20.4818C13.9437 20.6498 13.8457 20.8038 13.7197 20.9438C13.4537 21.2098 13.1037 21.3498 12.7257 21.3498Z" fill="#FF99C1"/>
</svg>
