<svg width="50" height="50" viewBox="0 0 50 50" fill="none" xmlns="http://www.w3.org/2000/svg">
<rect width="50" height="50" rx="15" fill="#E1CDFF"/>
<path d="M20.3857 43.1641H8.34147C7.94218 43.1641 7.55924 43.0054 7.2769 42.7231C6.99456 42.4408 6.83594 42.0578 6.83594 41.6585C6.83594 41.2592 6.99456 40.8763 7.2769 40.5939C7.55924 40.3116 7.94218 40.153 8.34147 40.153H20.3857C20.785 40.153 21.168 40.3116 21.4503 40.5939C21.7327 40.8763 21.8913 41.2592 21.8913 41.6585C21.8913 42.0578 21.7327 42.4408 21.4503 42.7231C21.168 43.0054 20.785 43.1641 20.3857 43.1641ZM17.3747 37.1419H8.34147C7.94218 37.1419 7.55924 36.9833 7.2769 36.701C6.99456 36.4186 6.83594 36.0357 6.83594 35.6364C6.83594 35.2371 6.99456 34.8542 7.2769 34.5718C7.55924 34.2895 7.94218 34.1308 8.34147 34.1308H17.3747C17.774 34.1308 18.1569 34.2895 18.4392 34.5718C18.7216 34.8542 18.8802 35.2371 18.8802 35.6364C18.8802 36.0357 18.7216 36.4186 18.4392 36.701C18.1569 36.9833 17.774 37.1419 17.3747 37.1419ZM14.3636 31.1198H8.34147C7.94218 31.1198 7.55924 30.9612 7.2769 30.6788C6.99456 30.3965 6.83594 30.0135 6.83594 29.6142C6.83594 29.215 6.99456 28.832 7.2769 28.5497C7.55924 28.2673 7.94218 28.1087 8.34147 28.1087H14.3636C14.7629 28.1087 15.1458 28.2673 15.4282 28.5497C15.7105 28.832 15.8691 29.215 15.8691 29.6142C15.8691 30.0135 15.7105 30.3965 15.4282 30.6788C15.1458 30.9612 14.7629 31.1198 14.3636 31.1198ZM26.4079 43.0963C26.0086 43.1141 25.6186 42.9725 25.3237 42.7027C25.0288 42.4329 24.8531 42.0571 24.8353 41.6578C24.8176 41.2585 24.9592 40.8685 25.2289 40.5736C25.4987 40.2787 25.8746 40.103 26.2739 40.0852C29.123 39.8245 31.8389 38.7574 34.1035 37.0088C36.368 35.2602 38.0874 32.9025 39.0603 30.212C40.0331 27.5214 40.2192 24.6093 39.5967 21.8168C38.9742 19.0243 37.5689 16.467 35.5454 14.4443C33.5218 12.4217 30.9638 11.0176 28.171 10.3964C25.3782 9.77515 22.4662 9.96257 19.7761 10.9367C17.086 11.9108 14.7291 13.6313 12.9816 15.8966C11.234 18.1619 10.1681 20.8783 9.90873 23.7276C9.89094 23.9245 9.83453 24.116 9.74274 24.2911C9.65094 24.4663 9.52555 24.6216 9.37372 24.7482C9.2219 24.8749 9.04661 24.9704 8.85787 25.0293C8.66914 25.0883 8.47064 25.1094 8.27372 25.0916C8.0768 25.0738 7.88532 25.0174 7.7102 24.9256C7.53508 24.8338 7.37975 24.7084 7.25309 24.5566C7.12643 24.4048 7.03092 24.2295 6.972 24.0408C6.91308 23.852 6.89191 23.6535 6.90971 23.4566C7.32959 18.8246 9.51971 14.5329 13.0242 11.4749C16.5286 8.41699 21.0774 6.8284 25.7237 7.03985C30.3699 7.25129 34.7556 9.24649 37.9679 12.6101C41.1801 15.9737 42.9713 20.4466 42.9688 25.0976C42.9918 29.6118 41.3148 33.9691 38.2713 37.303C35.2278 40.6369 31.0409 42.703 26.5434 43.0903C26.4982 43.0948 26.4515 43.0963 26.4079 43.0963ZM24.9023 16.0644C24.5031 16.0644 24.1201 16.2231 23.8378 16.5054C23.5554 16.7877 23.3968 17.1707 23.3968 17.57V25.0976C23.3969 25.4969 23.5556 25.8798 23.8379 26.1621L28.3545 30.6787C28.6385 30.9529 29.0188 31.1047 29.4135 31.1012C29.8083 31.0978 30.1859 30.9395 30.465 30.6603C30.7442 30.3812 30.9025 30.0036 30.9059 29.6088C30.9094 29.2141 30.7576 28.8338 30.4834 28.5498L26.4079 24.4744V17.57C26.4079 17.1707 26.2493 16.7877 25.9669 16.5054C25.6846 16.2231 25.3016 16.0644 24.9023 16.0644Z" fill="black"/>
</svg>
